# xmcd
#
# Track frame offsets:
#	150
#	18394
#	47051
#	66239
#	79523
#	102371
#	115520
#	139959
#	158616
#	176411
#	186177
#	199754
#	215800
#	237959
#	258388
#	274015
#	294149
#	307318
#
# Disc length: 4275 seconds
#
# Revision: 2
# Processed by: cddbd v1.5.2PL0 Copyright (c) Steve Scherf et al.
# Submitted via: audiograbber 1.83.01
#
DISCID=0210b112
DTITLE=Ron Sayer Jr. - Don't Make Me Stay
DYEAR=2005
DGENRE=Blues
TTITLE0=Crossroads
TTITLE1=Red House
TTITLE2=Sunshine of Your Love
TTITLE3=Born Under a Bad sign
TTITLE4=Chevrolet
TTITLE5=Mary Had a Little Lamb
TTITLE6=Voodoo Chile Slight Return
TTITLE7=Hoochie Choochie man
TTITLE8=Balck Magic Woman
TTITLE9=Scuttle Buttin'
TTITLE10=Phone Booth
TTITLE11=Walkin' By Myself
TTITLE12=The Thrill is Gone
TTITLE13=Lovin' Cup
TTITLE14=I'm Tore Down
TTITLE15=Little Wing
TTITLE16=Don't Make Me Stay
TTITLE17=Bad Thing
EXTD=
EXTT0=
EXTT1=
EXTT2=
EXTT3=
EXTT4=
EXTT5=
EXTT6=
EXTT7=
EXTT8=
EXTT9=
EXTT10=
EXTT11=
EXTT12=
EXTT13=
EXTT14=
EXTT15=
EXTT16=
EXTT17=
PLAYORDER=
